<svg width="237" height="45" viewBox="0 0 237 45" fill="none" xmlns="http://www.w3.org/2000/svg">
<g clip-path="url(#clip0_121_464)">
<path d="M11.45 32.35L0.300049 21.05L11.45 9.80003H19.55L8.30005 21.05L19.55 32.35H11.45ZM31.1742 39L23.9242 14.2H30.2743L34.5742 32.05L39.5742 14.2H46.6742L51.6742 32.05L56.0243 14.2H62.3742L55.0742 39H48.4242L43.1242 20.45L37.8242 39H31.1742ZM69.8621 10.35C68.6954 10.35 67.7288 10 66.9621 9.30003C66.2288 8.60003 65.8621 7.7167 65.8621 6.65003C65.8621 5.58336 66.2288 4.71669 66.9621 4.05003C67.7288 3.35003 68.6954 3.00003 69.8621 3.00003C71.0288 3.00003 71.9788 3.35003 72.7121 4.05003C73.4788 4.71669 73.8621 5.58336 73.8621 6.65003C73.8621 7.7167 73.4788 8.60003 72.7121 9.30003C71.9788 10 71.0288 10.35 69.8621 10.35ZM66.6621 39V14.2H73.0621V39H66.6621ZM91.8922 39.6C89.3589 39.6 87.1255 39.05 85.1922 37.95C83.2589 36.85 81.7255 35.3167 80.5922 33.35C79.4922 31.3833 78.9422 29.1333 78.9422 26.6C78.9422 24.0667 79.4922 21.8167 80.5922 19.85C81.7255 17.8833 83.2589 16.35 85.1922 15.25C87.1255 14.15 89.3589 13.6 91.8922 13.6C95.0589 13.6 97.7255 14.4333 99.8922 16.1C102.059 17.7333 103.442 20 104.042 22.9H97.2922C96.9589 21.7 96.2922 20.7667 95.2922 20.1C94.3255 19.4 93.1755 19.05 91.8422 19.05C90.0755 19.05 88.5755 19.7167 87.3422 21.05C86.1089 22.3833 85.4922 24.2333 85.4922 26.6C85.4922 28.9667 86.1089 30.8167 87.3422 32.15C88.5755 33.4833 90.0755 34.15 91.8422 34.15C93.1755 34.15 94.3255 33.8167 95.2922 33.15C96.2922 32.4833 96.9589 31.5333 97.2922 30.3H104.042C103.442 33.1 102.059 35.35 99.8922 37.05C97.7255 38.75 95.0589 39.6 91.8922 39.6ZM107.623 44.55L120.123 0.150024H126.373L113.823 44.55H107.623ZM139.726 39.6C137.393 39.6 135.31 39.0333 133.476 37.9C131.643 36.7667 130.193 35.2167 129.126 33.25C128.06 31.2833 127.526 29.05 127.526 26.55C127.526 24.05 128.06 21.8333 129.126 19.9C130.193 17.9333 131.643 16.4 133.476 15.3C135.31 14.1667 137.393 13.6 139.726 13.6C141.593 13.6 143.226 13.95 144.626 14.65C146.026 15.35 147.16 16.3333 148.026 17.6V3.00003H154.426V39H148.726L148.026 35.45C147.226 36.55 146.16 37.5167 144.826 38.35C143.526 39.1833 141.826 39.6 139.726 39.6ZM141.076 34C143.143 34 144.826 33.3167 146.126 31.95C147.46 30.55 148.126 28.7667 148.126 26.6C148.126 24.4333 147.46 22.6667 146.126 21.3C144.826 19.9 143.143 19.2 141.076 19.2C139.043 19.2 137.36 19.8833 136.026 21.25C134.693 22.6167 134.026 24.3833 134.026 26.55C134.026 28.7167 134.693 30.5 136.026 31.9C137.36 33.3 139.043 34 141.076 34ZM172.993 39.6C170.493 39.6 168.277 39.0667 166.343 38C164.41 36.9333 162.893 35.4333 161.793 33.5C160.693 31.5667 160.143 29.3333 160.143 26.8C160.143 24.2333 160.677 21.95 161.743 19.95C162.843 17.95 164.343 16.4 166.243 15.3C168.177 14.1667 170.443 13.6 173.043 13.6C175.477 13.6 177.627 14.1333 179.493 15.2C181.36 16.2667 182.81 17.7333 183.843 19.6C184.91 21.4333 185.443 23.4833 185.443 25.75C185.443 26.1167 185.427 26.5 185.393 26.9C185.393 27.3 185.377 27.7167 185.343 28.15H166.493C166.627 30.0833 167.293 31.6 168.493 32.7C169.727 33.8 171.21 34.35 172.943 34.35C174.243 34.35 175.327 34.0667 176.193 33.5C177.093 32.9 177.76 32.1333 178.193 31.2H184.693C184.227 32.7667 183.443 34.2 182.343 35.5C181.277 36.7667 179.943 37.7667 178.343 38.5C176.777 39.2333 174.993 39.6 172.993 39.6ZM173.043 18.8C171.477 18.8 170.093 19.25 168.893 20.15C167.693 21.0167 166.927 22.35 166.593 24.15H178.943C178.843 22.5167 178.243 21.2167 177.143 20.25C176.043 19.2833 174.677 18.8 173.043 18.8ZM196.55 39L187.45 14.2H194.15L200.45 32.95L206.75 14.2H213.45L204.3 39H196.55ZM217.736 32.35L228.936 21.05L217.736 9.80003H225.786L236.986 21.05L225.786 32.35H217.736Z" fill="black"/>
</g>
<defs>
<clipPath id="clip0_121_464">
<rect width="237" height="45" fill="white"/>
</clipPath>
</defs>
</svg>
